<svg width="21" height="21" viewBox="0 0 21 21" fill="none" xmlns="http://www.w3.org/2000/svg">
<g clip-path="url(#clip0_2840_16007)">
<path d="M13.7812 15.75H11.1562V18.375H13.7812V15.75Z" fill="white"/>
<path d="M18.375 15.75H15.75V18.375H18.375V15.75Z" fill="white"/>
<path d="M13.7812 11.1562H11.1562V13.7812H13.7812V11.1562Z" fill="white"/>
<path d="M18.375 11.1562H15.75V13.7812H18.375V11.1562Z" fill="white"/>
<path d="M18.375 7.21875H14.4375V4.59375C14.4375 3.47812 13.5844 2.625 12.4688 2.625H8.53125C7.41563 2.625 6.5625 3.47812 6.5625 4.59375V7.21875H2.625C2.23125 7.21875 1.96875 7.48125 1.96875 7.875C1.96875 7.94063 1.96875 7.94062 1.96875 8.00625L3.21563 15.9469C3.28125 16.6031 3.87188 17.0625 4.52813 17.0625H9.84375V15.75H4.52813L3.4125 8.53125H18.375V7.21875ZM7.875 4.59375C7.875 4.2 8.1375 3.9375 8.53125 3.9375H12.4688C12.8625 3.9375 13.125 4.2 13.125 4.59375V7.21875H7.875V4.59375Z" fill="white"/>
</g>
<defs>
<clipPath id="clip0_2840_16007">
<rect width="21" height="21" fill="white"/>
</clipPath>
</defs>
</svg>
