<svg width="32" height="32" viewBox="0 0 32 32" fill="none" xmlns="http://www.w3.org/2000/svg">
<g clip-path="url(#clip0_2840_16216)">
<path d="M29.976 15.7832L27.976 6.7832C27.9202 6.53144 27.7692 6.31101 27.5546 6.168L21.5546 2.168C21.3903 2.05851 21.1973 2.00006 20.9999 2H10.9999C10.8025 2.00006 10.6095 2.05851 10.4452 2.168L4.44521 6.168C4.23062 6.31101 4.07963 6.53144 4.02381 6.7832L2.02381 15.7832C1.98679 15.95 1.99302 16.1234 2.04191 16.2871L5.04191 26.2871C5.08945 26.4457 5.17563 26.5901 5.29273 26.7072C5.40983 26.8243 5.55418 26.9105 5.71281 26.958L15.7128 29.958L15.7179 29.9585C15.9018 30.0138 16.098 30.0138 16.2819 29.9585L16.287 29.958L26.287 26.958C26.4457 26.9105 26.59 26.8243 26.7071 26.7072C26.8242 26.5901 26.9104 26.4457 26.9579 26.2871L29.9579 16.2871C30.0068 16.1234 30.013 15.95 29.976 15.7832ZM10.926 16.6162L7.01671 8.7974L14.2982 11.4453L10.926 16.6162ZM15.9999 12.4971L19.5888 18H12.411L15.9999 12.4971ZM19.3817 20L15.9999 26.7637L12.6181 20H19.3817ZM17.7017 11.4453L24.9832 8.7974L21.0732 16.6162L17.7017 11.4453ZM18.1899 9.14L21.286 4.393L24.8012 6.7362L18.1899 9.14ZM15.9999 8.8364L12.8458 4H19.154L15.9999 8.8364ZM13.8099 9.1396L7.19911 6.7358L10.7143 4.3926L13.8099 9.1396ZM8.96601 17.1696L4.16401 15.3689L5.36511 9.9668L8.96601 17.1696ZM14.0699 27.377L7.56781 25.4263L10.6962 20.6294L14.0699 27.377ZM21.3033 20.6294L24.4317 25.4263L17.9299 27.377L21.3033 20.6294ZM26.6347 9.9668L27.8353 15.3687L23.0333 17.1694L26.6347 9.9668ZM4.53731 17.6445L9.13171 19.3672L6.33901 23.65L4.53731 17.6445ZM25.6608 23.65L22.8681 19.3673L27.4625 17.6446L25.6608 23.65Z" fill="black"/>
</g>
<defs>
<clipPath id="clip0_2840_16216">
<rect width="32" height="32" fill="white"/>
</clipPath>
</defs>
</svg>
