<svg width="34" height="34" viewBox="0 0 34 34" fill="none" xmlns="http://www.w3.org/2000/svg">
<g clip-path="url(#clip0_2888_16105)">
<path d="M27.3063 9.88125L19.8688 2.44375C19.6563 2.23125 19.4438 2.125 19.125 2.125H8.5C7.33125 2.125 6.375 3.08125 6.375 4.25V29.75C6.375 30.9188 7.33125 31.875 8.5 31.875H25.5C26.6688 31.875 27.625 30.9188 27.625 29.75V10.625C27.625 10.3062 27.5188 10.0938 27.3063 9.88125ZM19.125 4.675L25.075 10.625H19.125V4.675ZM25.5 29.75H8.5V4.25H17V10.625C17 11.7937 17.9563 12.75 19.125 12.75H25.5V29.75Z" fill="#0F62FE"/>
<path d="M23.375 23.375H10.625V25.5H23.375V23.375Z" fill="#0F62FE"/>
<path d="M23.375 17H10.625V19.125H23.375V17Z" fill="#0F62FE"/>
</g>
<defs>
<clipPath id="clip0_2888_16105">
<rect width="34" height="34" fill="white"/>
</clipPath>
</defs>
</svg>
