<svg width="26" height="26" viewBox="0 0 26 26" fill="none" xmlns="http://www.w3.org/2000/svg">
<g clip-path="url(#clip0_2840_16110)">
<path d="M13.4975 1.79867C13.3533 1.68613 13.1756 1.625 12.9926 1.625C12.8097 1.625 12.632 1.68613 12.4878 1.79867L0.8125 10.9032L1.82219 12.1802L3.25 11.0669V21.125C3.25088 21.5557 3.42237 21.9685 3.72692 22.273C4.03148 22.5776 4.44429 22.7491 4.875 22.75H21.125C21.5557 22.7492 21.9686 22.5777 22.2732 22.2731C22.5777 21.9686 22.7492 21.5557 22.75 21.125V11.0743L24.1778 12.1875L25.1875 10.9104L13.4975 1.79867ZM14.625 21.125H11.375V14.625H14.625V21.125ZM16.25 21.125V14.625C16.2495 14.1941 16.0781 13.7811 15.7735 13.4765C15.4689 13.1718 15.0558 13.0004 14.625 13H11.375C10.9442 13.0004 10.5311 13.1717 10.2264 13.4764C9.92177 13.781 9.75043 14.1941 9.75 14.625V21.125H4.875V9.79992L13 3.47055L21.125 9.80845V21.125H16.25Z" fill="white"/>
</g>
<defs>
<clipPath id="clip0_2840_16110">
<rect width="26" height="26" fill="white"/>
</clipPath>
</defs>
</svg>
