<svg width="25" height="25" viewBox="0 0 25 25" fill="none" xmlns="http://www.w3.org/2000/svg">
<g clip-path="url(#clip0_2840_16166)">
<path d="M22.8459 3.14842L16.5959 1.58592C16.4364 1.54633 16.2686 1.55767 16.1159 1.61834L8.53781 4.64959L2.53336 3.14842C2.41818 3.1196 2.29795 3.11742 2.1818 3.14203C2.06565 3.16664 1.95664 3.21741 1.86304 3.29046C1.76945 3.36352 1.69374 3.45694 1.64166 3.56364C1.58958 3.67034 1.56251 3.7875 1.5625 3.90623V21.0937C1.56252 21.2679 1.62075 21.4371 1.72795 21.5744C1.83514 21.7117 1.98515 21.8093 2.15414 21.8515L8.40414 23.414C8.46618 23.4294 8.52984 23.4373 8.59375 23.4375C8.69322 23.4375 8.79177 23.4185 8.88406 23.3814L16.4622 20.3501L22.4669 21.8516C22.582 21.8804 22.7023 21.8825 22.8184 21.8579C22.9345 21.8333 23.0435 21.7825 23.1371 21.7094C23.2306 21.6364 23.3063 21.543 23.3584 21.4363C23.4104 21.3296 23.4375 21.2124 23.4375 21.0937V3.90623C23.4375 3.73204 23.3792 3.56285 23.2721 3.42554C23.1649 3.28824 23.0148 3.1907 22.8459 3.14842ZM21.875 8.59373H17.1875V3.3442L21.875 4.51608V8.59373ZM7.8125 14.8437H3.125V10.1562H7.8125V14.8437ZM9.375 8.59373V5.99772L15.625 3.49772V8.59373H9.375ZM15.625 10.1562V14.8437H9.375V10.1562H15.625ZM9.375 16.4062H15.625V19.0021L9.375 21.5021V16.4062ZM17.1875 10.1562H21.875V14.8437H17.1875V10.1562ZM7.8125 6.07858V8.59373H3.125V4.9067L7.8125 6.07858ZM3.125 16.4062H7.8125V21.6556L3.125 20.4837V16.4062ZM17.1875 18.9208V16.4062H21.875V20.0931L17.1875 18.9208Z" fill="white"/>
</g>
<defs>
<clipPath id="clip0_2840_16166">
<rect width="25" height="25" fill="white"/>
</clipPath>
</defs>
</svg>
