<svg width="25" height="25" viewBox="0 0 25 25" fill="none" xmlns="http://www.w3.org/2000/svg">
<g clip-path="url(#clip0_2840_16107)">
<path d="M22.6563 21.5515L16.7562 15.6515C18.1739 13.9494 18.8809 11.7663 18.73 9.55625C18.5792 7.34621 17.5821 5.27942 15.9461 3.78582C14.3102 2.29222 12.1615 1.48681 9.94688 1.53714C7.73228 1.58746 5.62232 2.48965 4.05595 4.05602C2.48959 5.62238 1.5874 7.73234 1.53708 9.94694C1.48675 12.1616 2.29216 14.3103 3.78576 15.9462C5.27936 17.5821 7.34615 18.5792 9.55619 18.7301C11.7662 18.881 13.9493 18.174 15.6514 16.7562L21.5515 22.6563L22.6563 21.5515ZM3.125 10.1563C3.125 8.76566 3.53738 7.40624 4.30998 6.24996C5.08258 5.09368 6.18072 4.19246 7.46551 3.66028C8.7503 3.12811 10.1641 2.98886 11.528 3.26017C12.8919 3.53147 14.1448 4.20113 15.1281 5.18447C16.1114 6.16781 16.7811 7.42066 17.0524 8.78458C17.3237 10.1485 17.1845 11.5623 16.6523 12.8471C16.1201 14.1318 15.2189 15.23 14.0626 16.0026C12.9063 16.7752 11.5469 17.1876 10.1563 17.1876C8.29208 17.1855 6.50486 16.444 5.18669 15.1259C3.86852 13.8077 3.12707 12.0205 3.125 10.1563Z" fill="white"/>
</g>
<defs>
<clipPath id="clip0_2840_16107">
<rect width="25" height="25" fill="white"/>
</clipPath>
</defs>
</svg>
