<svg width="25" height="25" viewBox="0 0 25 25" fill="none" xmlns="http://www.w3.org/2000/svg">
<g clip-path="url(#clip0_2840_16123)">
<path d="M16.4062 18.75H13.2812V21.875H16.4062V18.75Z" fill="white"/>
<path d="M21.875 18.75H18.75V21.875H21.875V18.75Z" fill="white"/>
<path d="M16.4062 13.2812H13.2812V16.4062H16.4062V13.2812Z" fill="white"/>
<path d="M21.875 13.2812H18.75V16.4062H21.875V13.2812Z" fill="white"/>
<path d="M21.875 8.59375H17.1875V5.46875C17.1875 4.14062 16.1719 3.125 14.8438 3.125H10.1562C8.82812 3.125 7.8125 4.14062 7.8125 5.46875V8.59375H3.125C2.65625 8.59375 2.34375 8.90625 2.34375 9.375C2.34375 9.45312 2.34375 9.45312 2.34375 9.53125L3.82813 18.9844C3.90625 19.7656 4.60938 20.3125 5.39062 20.3125H11.7188V18.75H5.39062L4.0625 10.1562H21.875V8.59375ZM9.375 5.46875C9.375 5 9.6875 4.6875 10.1562 4.6875H14.8438C15.3125 4.6875 15.625 5 15.625 5.46875V8.59375H9.375V5.46875Z" fill="white"/>
</g>
<defs>
<clipPath id="clip0_2840_16123">
<rect width="25" height="25" fill="white"/>
</clipPath>
</defs>
</svg>
